solid OpenSCAD_Model
  facet normal -1 0 0
    outer loop
      vertex 69.1 61.5 8
      vertex 69.1 83.8 69.7
      vertex 69.1 83.8 8
    endloop
  endfacet
  facet normal -1 -0 0
    outer loop
      vertex 69.1 83.8 69.7
      vertex 69.1 61.5 8
      vertex 69.1 61.5 69.7
    endloop
  endfacet
  facet normal -0 0 1
    outer loop
      vertex 7.4 83.8 8
      vertex 69.1 61.5 8
      vertex 69.1 83.8 8
    endloop
  endfacet
  facet normal 0 0 1
    outer loop
      vertex 69.1 61.5 8
      vertex 7.4 83.8 8
      vertex 7.4 61.5 8
    endloop
  endfacet
  facet normal 1 -0 0
    outer loop
      vertex 7.4 61.5 69.7
      vertex 7.4 83.8 8
      vertex 7.4 83.8 69.7
    endloop
  endfacet
  facet normal 1 0 0
    outer loop
      vertex 7.4 83.8 8
      vertex 7.4 61.5 69.7
      vertex 7.4 61.5 8
    endloop
  endfacet
  facet normal 0 -1 0
    outer loop
      vertex 7.4 83.8 8
      vertex 69.1 83.8 69.7
      vertex 7.4 83.8 69.7
    endloop
  endfacet
  facet normal 0 -1 -0
    outer loop
      vertex 69.1 83.8 69.7
      vertex 7.4 83.8 8
      vertex 69.1 83.8 8
    endloop
  endfacet
  facet normal 0 1 -0
    outer loop
      vertex 69.1 61.5 8
      vertex 7.4 61.5 69.7
      vertex 69.1 61.5 69.7
    endloop
  endfacet
  facet normal 0 1 0
    outer loop
      vertex 7.4 61.5 69.7
      vertex 69.1 61.5 8
      vertex 7.4 61.5 8
    endloop
  endfacet
  facet normal -1 0 0
    outer loop
      vertex 68.5 30.25 0
      vertex 68.5 60.5 69.7
      vertex 68.5 60.5 0
    endloop
  endfacet
  facet normal -1 -0 0
    outer loop
      vertex 68.5 60.5 69.7
      vertex 68.5 30.25 0
      vertex 68.5 30.25 69.7
    endloop
  endfacet
  facet normal 1 -0 0
    outer loop
      vertex 8 30.25 69.7
      vertex 8 60.5 0
      vertex 8 60.5 69.7
    endloop
  endfacet
  facet normal 1 0 0
    outer loop
      vertex 8 60.5 0
      vertex 8 30.25 69.7
      vertex 8 30.25 0
    endloop
  endfacet
  facet normal 0 -1 0
    outer loop
      vertex 8 60.5 0
      vertex 68.5 60.5 69.7
      vertex 8 60.5 69.7
    endloop
  endfacet
  facet normal 0 -1 -0
    outer loop
      vertex 68.5 60.5 69.7
      vertex 8 60.5 0
      vertex 68.5 60.5 0
    endloop
  endfacet
  facet normal -1 0 0
    outer loop
      vertex 54.4 113.844 0
      vertex 54.4 125 40
      vertex 54.4 153.844 40
    endloop
  endfacet
  facet normal -1 0 0
    outer loop
      vertex 54.4 125 40
      vertex 54.4 113.844 0
      vertex 54.4 85 0
    endloop
  endfacet
  facet normal 1 -0 0
    outer loop
      vertex 22.1 125 40
      vertex 22.1 113.844 0
      vertex 22.1 153.844 40
    endloop
  endfacet
  facet normal 1 0 -0
    outer loop
      vertex 22.1 113.844 0
      vertex 22.1 125 40
      vertex 22.1 85 0
    endloop
  endfacet
  facet normal 0 0.707107 -0.707107
    outer loop
      vertex 54.4 85 0
      vertex 22.1 125 40
      vertex 54.4 125 40
    endloop
  endfacet
  facet normal 0 0.707107 -0.707107
    outer loop
      vertex 22.1 125 40
      vertex 54.4 85 0
      vertex 22.1 85 0
    endloop
  endfacet
  facet normal 1 -0 0
    outer loop
      vertex 76.5 30.25 69.7
      vertex 76.5 91.8 0
      vertex 76.5 91.8 69.7
    endloop
  endfacet
  facet normal 1 0 0
    outer loop
      vertex 76.5 91.8 0
      vertex 76.5 30.25 69.7
      vertex 76.5 30.25 0
    endloop
  endfacet
  facet normal 0 0 1
    outer loop
      vertex 69.1 61.5 69.7
      vertex 8 60.5 69.7
      vertex 68.5 60.5 69.7
    endloop
  endfacet
  facet normal -0 0 1
    outer loop
      vertex 7.4 61.5 69.7
      vertex 8 60.5 69.7
      vertex 69.1 61.5 69.7
    endloop
  endfacet
  facet normal 0 0 1
    outer loop
      vertex 0 30.25 69.7
      vertex 8 60.5 69.7
      vertex 7.4 61.5 69.7
    endloop
  endfacet
  facet normal 0 0 1
    outer loop
      vertex 0 30.25 69.7
      vertex 7.4 61.5 69.7
      vertex 0 91.8 69.7
    endloop
  endfacet
  facet normal 0 0 1
    outer loop
      vertex 8 60.5 69.7
      vertex 0 30.25 69.7
      vertex 8 30.25 69.7
    endloop
  endfacet
  facet normal 0 0 1
    outer loop
      vertex 69.1 61.5 69.7
      vertex 76.5 91.8 69.7
      vertex 69.1 83.8 69.7
    endloop
  endfacet
  facet normal 0 0 1
    outer loop
      vertex 76.5 91.8 69.7
      vertex 7.4 83.8 69.7
      vertex 69.1 83.8 69.7
    endloop
  endfacet
  facet normal 0 0 1
    outer loop
      vertex 7.4 83.8 69.7
      vertex 0 91.8 69.7
      vertex 7.4 61.5 69.7
    endloop
  endfacet
  facet normal -0 0 1
    outer loop
      vertex 0 91.8 69.7
      vertex 7.4 83.8 69.7
      vertex 76.5 91.8 69.7
    endloop
  endfacet
  facet normal 0 0 1
    outer loop
      vertex 76.5 91.8 69.7
      vertex 69.1 61.5 69.7
      vertex 76.5 30.25 69.7
    endloop
  endfacet
  facet normal -0 0 1
    outer loop
      vertex 68.5 60.5 69.7
      vertex 76.5 30.25 69.7
      vertex 69.1 61.5 69.7
    endloop
  endfacet
  facet normal 0 0 1
    outer loop
      vertex 76.5 30.25 69.7
      vertex 68.5 60.5 69.7
      vertex 68.5 30.25 69.7
    endloop
  endfacet
  facet normal 0 0 -1
    outer loop
      vertex 8 30.25 0
      vertex 0 30.25 0
      vertex 8 60.5 0
    endloop
  endfacet
  facet normal 0 0 -1
    outer loop
      vertex 68.5 60.5 0
      vertex 76.5 30.25 0
      vertex 68.5 30.25 0
    endloop
  endfacet
  facet normal 0 0 -1
    outer loop
      vertex 76.5 30.25 0
      vertex 68.5 60.5 0
      vertex 76.5 91.8 0
    endloop
  endfacet
  facet normal 0 0 -1
    outer loop
      vertex 68.5 60.5 0
      vertex 62.4 91.8 0
      vertex 76.5 91.8 0
    endloop
  endfacet
  facet normal 0 0 -1
    outer loop
      vertex 54.4 113.844 0
      vertex 62.4 91.8 0
      vertex 54.4 85 0
    endloop
  endfacet
  facet normal 0 0 -1
    outer loop
      vertex 68.5 60.5 0
      vertex 54.4 85 0
      vertex 62.4 91.8 0
    endloop
  endfacet
  facet normal 0 0 -1
    outer loop
      vertex 68.5 60.5 0
      vertex 22.1 85 0
      vertex 54.4 85 0
    endloop
  endfacet
  facet normal 0 0 -1
    outer loop
      vertex 22.1 85 0
      vertex 14.1 91.8 0
      vertex 22.1 113.844 0
    endloop
  endfacet
  facet normal 0 0 -1
    outer loop
      vertex 8 60.5 0
      vertex 22.1 85 0
      vertex 68.5 60.5 0
    endloop
  endfacet
  facet normal 0 0 -1
    outer loop
      vertex 8 60.5 0
      vertex 14.1 91.8 0
      vertex 22.1 85 0
    endloop
  endfacet
  facet normal 0 0 -1
    outer loop
      vertex 0 91.8 0
      vertex 8 60.5 0
      vertex 0 30.25 0
    endloop
  endfacet
  facet normal 0 0 -1
    outer loop
      vertex 8 60.5 0
      vertex 0 91.8 0
      vertex 14.1 91.8 0
    endloop
  endfacet
  facet normal 0 0 -1
    outer loop
      vertex 62.4 91.8 0
      vertex 54.4 113.844 0
      vertex 62.4 113.844 0
    endloop
  endfacet
  facet normal -0 0 -1
    outer loop
      vertex 22.1 113.844 0
      vertex 14.1 91.8 0
      vertex 14.1 113.844 0
    endloop
  endfacet
  facet normal -1 0 0
    outer loop
      vertex 0 30.25 0
      vertex 0 91.8 69.7
      vertex 0 91.8 0
    endloop
  endfacet
  facet normal -1 -0 0
    outer loop
      vertex 0 91.8 69.7
      vertex 0 30.25 0
      vertex 0 30.25 69.7
    endloop
  endfacet
  facet normal 0 -1 0
    outer loop
      vertex 0 30.25 0
      vertex 8 30.25 69.7
      vertex 0 30.25 69.7
    endloop
  endfacet
  facet normal 0 -1 -0
    outer loop
      vertex 8 30.25 69.7
      vertex 0 30.25 0
      vertex 8 30.25 0
    endloop
  endfacet
  facet normal 0 -1 0
    outer loop
      vertex 68.5 30.25 0
      vertex 76.5 30.25 69.7
      vertex 68.5 30.25 69.7
    endloop
  endfacet
  facet normal 0 -1 -0
    outer loop
      vertex 76.5 30.25 69.7
      vertex 68.5 30.25 0
      vertex 76.5 30.25 0
    endloop
  endfacet
  facet normal 0 0.707107 -0.707107
    outer loop
      vertex 22.1 113.844 0
      vertex 14.1 153.844 40
      vertex 22.1 153.844 40
    endloop
  endfacet
  facet normal 0 0.707107 -0.707107
    outer loop
      vertex 14.1 153.844 40
      vertex 22.1 113.844 0
      vertex 14.1 113.844 0
    endloop
  endfacet
  facet normal 0 0.707107 -0.707107
    outer loop
      vertex 62.4 113.844 0
      vertex 54.4 153.844 40
      vertex 62.4 153.844 40
    endloop
  endfacet
  facet normal 0 0.707107 -0.707107
    outer loop
      vertex 54.4 153.844 40
      vertex 62.4 113.844 0
      vertex 54.4 113.844 0
    endloop
  endfacet
  facet normal 0 0 1
    outer loop
      vertex 22.1 153.844 40
      vertex 14.1 153.844 40
      vertex 22.1 125 40
    endloop
  endfacet
  facet normal 0 0 1
    outer loop
      vertex 54.4 125 40
      vertex 62.4 153.844 40
      vertex 54.4 153.844 40
    endloop
  endfacet
  facet normal 0 0 1
    outer loop
      vertex 62.4 153.844 40
      vertex 54.4 125 40
      vertex 62.4 91.8 40
    endloop
  endfacet
  facet normal -0 0 1
    outer loop
      vertex 22.1 125 40
      vertex 62.4 91.8 40
      vertex 54.4 125 40
    endloop
  endfacet
  facet normal 0 0 1
    outer loop
      vertex 22.1 125 40
      vertex 14.1 91.8 40
      vertex 62.4 91.8 40
    endloop
  endfacet
  facet normal 0 0 1
    outer loop
      vertex 14.1 91.8 40
      vertex 22.1 125 40
      vertex 14.1 153.844 40
    endloop
  endfacet
  facet normal 0 1 0
    outer loop
      vertex 76.5 91.8 69.7
      vertex 62.4 91.8 40
      vertex 0 91.8 69.7
    endloop
  endfacet
  facet normal 0 1 -0
    outer loop
      vertex 76.5 91.8 0
      vertex 62.4 91.8 40
      vertex 76.5 91.8 69.7
    endloop
  endfacet
  facet normal 0 1 0
    outer loop
      vertex 62.4 91.8 40
      vertex 76.5 91.8 0
      vertex 62.4 91.8 0
    endloop
  endfacet
  facet normal 0 1 -0
    outer loop
      vertex 14.1 91.8 40
      vertex 0 91.8 69.7
      vertex 62.4 91.8 40
    endloop
  endfacet
  facet normal 0 1 0
    outer loop
      vertex 0 91.8 0
      vertex 14.1 91.8 40
      vertex 14.1 91.8 0
    endloop
  endfacet
  facet normal 0 1 0
    outer loop
      vertex 14.1 91.8 40
      vertex 0 91.8 0
      vertex 0 91.8 69.7
    endloop
  endfacet
  facet normal -1 0 0
    outer loop
      vertex 14.1 91.8 40
      vertex 14.1 113.844 0
      vertex 14.1 91.8 0
    endloop
  endfacet
  facet normal -1 0 0
    outer loop
      vertex 14.1 113.844 0
      vertex 14.1 91.8 40
      vertex 14.1 153.844 40
    endloop
  endfacet
  facet normal 1 -0 0
    outer loop
      vertex 62.4 91.8 40
      vertex 62.4 113.844 0
      vertex 62.4 153.844 40
    endloop
  endfacet
  facet normal 1 0 0
    outer loop
      vertex 62.4 113.844 0
      vertex 62.4 91.8 40
      vertex 62.4 91.8 0
    endloop
  endfacet
endsolid OpenSCAD_Model
