solid OpenSCAD_Model
  facet normal -1 0 0
    outer loop
      vertex 64.1 61.5 3
      vertex 64.1 83.8 64.7
      vertex 64.1 83.8 3
    endloop
  endfacet
  facet normal -1 -0 0
    outer loop
      vertex 64.1 83.8 64.7
      vertex 64.1 61.5 3
      vertex 64.1 61.5 64.7
    endloop
  endfacet
  facet normal -0 0 1
    outer loop
      vertex 2.4 83.8 3
      vertex 64.1 61.5 3
      vertex 64.1 83.8 3
    endloop
  endfacet
  facet normal 0 0 1
    outer loop
      vertex 64.1 61.5 3
      vertex 2.4 83.8 3
      vertex 2.4 61.5 3
    endloop
  endfacet
  facet normal 1 -0 0
    outer loop
      vertex 2.4 61.5 64.7
      vertex 2.4 83.8 3
      vertex 2.4 83.8 64.7
    endloop
  endfacet
  facet normal 1 0 0
    outer loop
      vertex 2.4 83.8 3
      vertex 2.4 61.5 64.7
      vertex 2.4 61.5 3
    endloop
  endfacet
  facet normal 0 -1 0
    outer loop
      vertex 2.4 83.8 3
      vertex 64.1 83.8 64.7
      vertex 2.4 83.8 64.7
    endloop
  endfacet
  facet normal 0 -1 -0
    outer loop
      vertex 64.1 83.8 64.7
      vertex 2.4 83.8 3
      vertex 64.1 83.8 3
    endloop
  endfacet
  facet normal 0 1 -0
    outer loop
      vertex 64.1 61.5 3
      vertex 2.4 61.5 64.7
      vertex 64.1 61.5 64.7
    endloop
  endfacet
  facet normal 0 1 0
    outer loop
      vertex 2.4 61.5 64.7
      vertex 64.1 61.5 3
      vertex 2.4 61.5 3
    endloop
  endfacet
  facet normal -1 0 0
    outer loop
      vertex 63.5 30.25 0
      vertex 63.5 60.5 64.7
      vertex 63.5 60.5 0
    endloop
  endfacet
  facet normal -1 -0 0
    outer loop
      vertex 63.5 60.5 64.7
      vertex 63.5 30.25 0
      vertex 63.5 30.25 64.7
    endloop
  endfacet
  facet normal 1 -0 0
    outer loop
      vertex 3 30.25 64.7
      vertex 3 60.5 0
      vertex 3 60.5 64.7
    endloop
  endfacet
  facet normal 1 0 0
    outer loop
      vertex 3 60.5 0
      vertex 3 30.25 64.7
      vertex 3 30.25 0
    endloop
  endfacet
  facet normal 0 -1 0
    outer loop
      vertex 3 60.5 0
      vertex 63.5 60.5 64.7
      vertex 3 60.5 64.7
    endloop
  endfacet
  facet normal 0 -1 -0
    outer loop
      vertex 63.5 60.5 64.7
      vertex 3 60.5 0
      vertex 63.5 60.5 0
    endloop
  endfacet
  facet normal -1 0 0
    outer loop
      vertex 49.4 113.844 0
      vertex 49.4 125 40
      vertex 49.4 153.844 40
    endloop
  endfacet
  facet normal -1 0 0
    outer loop
      vertex 49.4 125 40
      vertex 49.4 113.844 0
      vertex 49.4 85 0
    endloop
  endfacet
  facet normal 1 -0 0
    outer loop
      vertex 17.1 125 40
      vertex 17.1 113.844 0
      vertex 17.1 153.844 40
    endloop
  endfacet
  facet normal 1 0 -0
    outer loop
      vertex 17.1 113.844 0
      vertex 17.1 125 40
      vertex 17.1 85 0
    endloop
  endfacet
  facet normal 0 0.707107 -0.707107
    outer loop
      vertex 49.4 85 0
      vertex 17.1 125 40
      vertex 49.4 125 40
    endloop
  endfacet
  facet normal 0 0.707107 -0.707107
    outer loop
      vertex 17.1 125 40
      vertex 49.4 85 0
      vertex 17.1 85 0
    endloop
  endfacet
  facet normal 1 -0 0
    outer loop
      vertex 66.5 30.25 64.7
      vertex 66.5 86.8 0
      vertex 66.5 86.8 64.7
    endloop
  endfacet
  facet normal 1 0 0
    outer loop
      vertex 66.5 86.8 0
      vertex 66.5 30.25 64.7
      vertex 66.5 30.25 0
    endloop
  endfacet
  facet normal 0 0 1
    outer loop
      vertex 64.1 61.5 64.7
      vertex 3 60.5 64.7
      vertex 63.5 60.5 64.7
    endloop
  endfacet
  facet normal -0 0 1
    outer loop
      vertex 2.4 61.5 64.7
      vertex 3 60.5 64.7
      vertex 64.1 61.5 64.7
    endloop
  endfacet
  facet normal 0 0 1
    outer loop
      vertex 0 30.25 64.7
      vertex 3 60.5 64.7
      vertex 2.4 61.5 64.7
    endloop
  endfacet
  facet normal 0 0 1
    outer loop
      vertex 0 30.25 64.7
      vertex 2.4 61.5 64.7
      vertex 0 86.8 64.7
    endloop
  endfacet
  facet normal 0 0 1
    outer loop
      vertex 3 60.5 64.7
      vertex 0 30.25 64.7
      vertex 3 30.25 64.7
    endloop
  endfacet
  facet normal 0 0 1
    outer loop
      vertex 64.1 61.5 64.7
      vertex 66.5 86.8 64.7
      vertex 64.1 83.8 64.7
    endloop
  endfacet
  facet normal 0 0 1
    outer loop
      vertex 66.5 86.8 64.7
      vertex 2.4 83.8 64.7
      vertex 64.1 83.8 64.7
    endloop
  endfacet
  facet normal 0 0 1
    outer loop
      vertex 2.4 83.8 64.7
      vertex 0 86.8 64.7
      vertex 2.4 61.5 64.7
    endloop
  endfacet
  facet normal -0 0 1
    outer loop
      vertex 0 86.8 64.7
      vertex 2.4 83.8 64.7
      vertex 66.5 86.8 64.7
    endloop
  endfacet
  facet normal 0 0 1
    outer loop
      vertex 66.5 86.8 64.7
      vertex 64.1 61.5 64.7
      vertex 66.5 30.25 64.7
    endloop
  endfacet
  facet normal -0 0 1
    outer loop
      vertex 63.5 60.5 64.7
      vertex 66.5 30.25 64.7
      vertex 64.1 61.5 64.7
    endloop
  endfacet
  facet normal 0 0 1
    outer loop
      vertex 66.5 30.25 64.7
      vertex 63.5 60.5 64.7
      vertex 63.5 30.25 64.7
    endloop
  endfacet
  facet normal 0 0 -1
    outer loop
      vertex 3 30.25 0
      vertex 0 30.25 0
      vertex 3 60.5 0
    endloop
  endfacet
  facet normal 0 0 -1
    outer loop
      vertex 63.5 60.5 0
      vertex 66.5 30.25 0
      vertex 63.5 30.25 0
    endloop
  endfacet
  facet normal 0 0 -1
    outer loop
      vertex 66.5 30.25 0
      vertex 63.5 60.5 0
      vertex 66.5 86.8 0
    endloop
  endfacet
  facet normal 0 0 -1
    outer loop
      vertex 63.5 60.5 0
      vertex 52.4 86.8 0
      vertex 66.5 86.8 0
    endloop
  endfacet
  facet normal 0 0 -1
    outer loop
      vertex 49.4 113.844 0
      vertex 52.4 86.8 0
      vertex 49.4 85 0
    endloop
  endfacet
  facet normal 0 0 -1
    outer loop
      vertex 63.5 60.5 0
      vertex 49.4 85 0
      vertex 52.4 86.8 0
    endloop
  endfacet
  facet normal 0 0 -1
    outer loop
      vertex 63.5 60.5 0
      vertex 17.1 85 0
      vertex 49.4 85 0
    endloop
  endfacet
  facet normal 0 0 -1
    outer loop
      vertex 17.1 85 0
      vertex 14.1 86.8 0
      vertex 17.1 113.844 0
    endloop
  endfacet
  facet normal 0 0 -1
    outer loop
      vertex 3 60.5 0
      vertex 17.1 85 0
      vertex 63.5 60.5 0
    endloop
  endfacet
  facet normal 0 0 -1
    outer loop
      vertex 3 60.5 0
      vertex 14.1 86.8 0
      vertex 17.1 85 0
    endloop
  endfacet
  facet normal 0 0 -1
    outer loop
      vertex 3 60.5 0
      vertex 0 86.8 0
      vertex 14.1 86.8 0
    endloop
  endfacet
  facet normal 0 0 -1
    outer loop
      vertex 0 86.8 0
      vertex 3 60.5 0
      vertex 0 30.25 0
    endloop
  endfacet
  facet normal 0 0 -1
    outer loop
      vertex 52.4 86.8 0
      vertex 49.4 113.844 0
      vertex 52.4 113.844 0
    endloop
  endfacet
  facet normal -0 0 -1
    outer loop
      vertex 17.1 113.844 0
      vertex 14.1 86.8 0
      vertex 14.1 113.844 0
    endloop
  endfacet
  facet normal -1 0 0
    outer loop
      vertex 0 30.25 0
      vertex 0 86.8 64.7
      vertex 0 86.8 0
    endloop
  endfacet
  facet normal -1 -0 0
    outer loop
      vertex 0 86.8 64.7
      vertex 0 30.25 0
      vertex 0 30.25 64.7
    endloop
  endfacet
  facet normal 0 -1 0
    outer loop
      vertex 0 30.25 0
      vertex 3 30.25 64.7
      vertex 0 30.25 64.7
    endloop
  endfacet
  facet normal 0 -1 -0
    outer loop
      vertex 3 30.25 64.7
      vertex 0 30.25 0
      vertex 3 30.25 0
    endloop
  endfacet
  facet normal 0 -1 0
    outer loop
      vertex 63.5 30.25 0
      vertex 66.5 30.25 64.7
      vertex 63.5 30.25 64.7
    endloop
  endfacet
  facet normal 0 -1 -0
    outer loop
      vertex 66.5 30.25 64.7
      vertex 63.5 30.25 0
      vertex 66.5 30.25 0
    endloop
  endfacet
  facet normal 0 0.707107 -0.707107
    outer loop
      vertex 17.1 113.844 0
      vertex 14.1 153.844 40
      vertex 17.1 153.844 40
    endloop
  endfacet
  facet normal 0 0.707107 -0.707107
    outer loop
      vertex 14.1 153.844 40
      vertex 17.1 113.844 0
      vertex 14.1 113.844 0
    endloop
  endfacet
  facet normal 0 0.707107 -0.707107
    outer loop
      vertex 52.4 113.844 0
      vertex 49.4 153.844 40
      vertex 52.4 153.844 40
    endloop
  endfacet
  facet normal 0 0.707107 -0.707107
    outer loop
      vertex 49.4 153.844 40
      vertex 52.4 113.844 0
      vertex 49.4 113.844 0
    endloop
  endfacet
  facet normal 0 0 1
    outer loop
      vertex 17.1 153.844 40
      vertex 14.1 153.844 40
      vertex 17.1 125 40
    endloop
  endfacet
  facet normal 0 0 1
    outer loop
      vertex 49.4 125 40
      vertex 52.4 153.844 40
      vertex 49.4 153.844 40
    endloop
  endfacet
  facet normal 0 0 1
    outer loop
      vertex 52.4 153.844 40
      vertex 49.4 125 40
      vertex 52.4 86.8 40
    endloop
  endfacet
  facet normal -0 0 1
    outer loop
      vertex 17.1 125 40
      vertex 52.4 86.8 40
      vertex 49.4 125 40
    endloop
  endfacet
  facet normal 0 0 1
    outer loop
      vertex 17.1 125 40
      vertex 14.1 86.8 40
      vertex 52.4 86.8 40
    endloop
  endfacet
  facet normal 0 0 1
    outer loop
      vertex 14.1 86.8 40
      vertex 17.1 125 40
      vertex 14.1 153.844 40
    endloop
  endfacet
  facet normal 0 1 0
    outer loop
      vertex 66.5 86.8 64.7
      vertex 52.4 86.8 40
      vertex 0 86.8 64.7
    endloop
  endfacet
  facet normal 0 1 -0
    outer loop
      vertex 66.5 86.8 0
      vertex 52.4 86.8 40
      vertex 66.5 86.8 64.7
    endloop
  endfacet
  facet normal 0 1 0
    outer loop
      vertex 52.4 86.8 40
      vertex 66.5 86.8 0
      vertex 52.4 86.8 0
    endloop
  endfacet
  facet normal 0 1 -0
    outer loop
      vertex 14.1 86.8 40
      vertex 0 86.8 64.7
      vertex 52.4 86.8 40
    endloop
  endfacet
  facet normal 0 1 0
    outer loop
      vertex 0 86.8 0
      vertex 14.1 86.8 40
      vertex 14.1 86.8 0
    endloop
  endfacet
  facet normal 0 1 0
    outer loop
      vertex 14.1 86.8 40
      vertex 0 86.8 0
      vertex 0 86.8 64.7
    endloop
  endfacet
  facet normal -1 0 0
    outer loop
      vertex 14.1 86.8 40
      vertex 14.1 113.844 0
      vertex 14.1 86.8 0
    endloop
  endfacet
  facet normal -1 0 0
    outer loop
      vertex 14.1 113.844 0
      vertex 14.1 86.8 40
      vertex 14.1 153.844 40
    endloop
  endfacet
  facet normal 1 -0 0
    outer loop
      vertex 52.4 86.8 40
      vertex 52.4 113.844 0
      vertex 52.4 153.844 40
    endloop
  endfacet
  facet normal 1 0 0
    outer loop
      vertex 52.4 113.844 0
      vertex 52.4 86.8 40
      vertex 52.4 86.8 0
    endloop
  endfacet
endsolid OpenSCAD_Model
